<?xml version="1.0" encoding="UTF-8"?>
<svg id="Capa_2" data-name="Capa 2" xmlns="http://www.w3.org/2000/svg" viewBox="0 0 342.05 338.89">
  <defs>
    <style>
      .cls-1 {
        fill: #141510;
      }

      .cls-1, .cls-2, .cls-3 {
        stroke-width: 0px;
      }

      .cls-2 {
        fill: #7a3c93;
      }

      .cls-3 {
        fill: #88c125;
      }
    </style>
  </defs>
  <g id="Capa_3" data-name="Capa 3">
    <path class="cls-1" d="M145.4,209.33c-55.76,6.11-121.93,21.88-129.15,27.79C8.43,244.42.05,254.38,0,266.64c.6,17.34,15.88,27.34,28.68,30,64.76-8.74,107.52-30.17,176.24-23.33,21.31,2.12,49.1,6.37,71.93,13.46,28.71,8.92,77.73,37.82,62.24-21.51-6.04-27.02-45.84-42.12-71.31-49.73,0,0-58.83-13.17-122.38-6.21ZM247.16,235.12s0,0,0,0h0Z"/>
    <g id="Spray">
      <path id="linea_verde" data-name="linea verde" class="cls-3" d="M123.68,231.71c72.89-12.51,203.34-4.26,197.86,40.15-.02.14-.04.28-.07.42-1.4,6.35-7.11,8.41-12.21,6.14-4.13-1.17-8.08-4.78-10.68-.86-3.9,3.97.05,38.42-7.81,36.02-.8-.25-1.45-.87-1.8-1.63-5.21-11.18,11.82-37.79-3-42.54-66.52-21.42-139.51-19.92-207.8-2.71-1.18.3-2.1,1.23-2.38,2.41-1.69,7.18-3.14,14.72-4.25,21.98-.69,4.03-1.35,8.14-2.75,11.33-2.07,4.42-3.25-.72-3.36-3.11-.42-4.29.03-10.76-.24-15.6-.02-.51-.06-1.02-.11-1.52-.33-3.54-5.36-3.98-6.38-.57-4.77,15.99-2.69,43.13-6.31,55.01-1.08,3.56-6.37,2.74-6.38-.98-.01-13.02,6.44-41.48,6.97-53.31.06-1.3-.68-2.5-1.85-3.07-10.29-5.08-17.26,3.45-25.62-11.77-.05-.1-.12-.19-.18-.28-20.3-28.14,81.79-32.63,98.34-35.47Z"/>
      <path id="x_morada" data-name="x morada" class="cls-2" d="M202.29,210.67c-6.39-9.04-14.5-16.58-22.12-24.54-7.49-8.01-14.82-16.22-22.29-24.24-1.73-1.81-3.9-3.96-6.26-4.51-2.71-.71-5.14.94-7.04,2.82-2.46,2.44-4.94,5.08-7.38,7.57-8.71,8.93-17.18,18.64-25.23,28.39-4.05,4.89-8.21,10.13-12.31,14.99-4.52,5-8.38,10.34-13.79,14.4-4.99,3.35-7.23,1.06-11.17-2.03-1.58-1.13-3.56-1.96-5.03-3.34-2.1-2.05-3.75-5.2-4.52-8.15-.97-4.18,2.22-8.08,4.44-11.43,7.72-11.07,16.21-21.79,24.03-32.87,6.98-10.32,14.91-19.93,22.65-29.68,3.48-4.1,6.21-9.28,2.19-14.04-24.79-25.44-51.37-49.13-76.14-74.55-2.86-3.15-6.14-6.5-7.31-9.93-2.17-7.47,11.97-12.91,16.32-17.37,3.13-2.78,6.5-6.36,11-6.19,3.74.13,7.32,2.53,10.27,4.84,24.89,20.46,45.89,44.77,69.97,66.07,2.04,1.73,4.55,3.92,7.18,4.17,3.15.39,5.8-2.43,7.79-4.71,12.08-14.25,24.67-28.84,37.93-43.03,12.04-12.91,24.22-25.48,37-37.57,2.16-1.99,4.5-4.1,7.2-5.15,5.31-2.25,9.7,2.27,13.25,5.65,4.38,4.04,9.46,7.48,12.49,12.89,4.05,6.56,1.75,14.04-2.7,19.77-22.95,28.99-50.27,54.19-76.17,80.56-4.45,4.37-6.48,8.9-1.78,13.97,26.53,26.84,53.66,53.02,78.91,81.03,5.05,5.34,9.53,11.61,10.78,18.99.78,4.71-4.3,5.58-7.61,6.91-3.74,1.51-6.58,4.55-10.04,6.58-5.13,2.82-8.36,4.22-8.95,10.26-1.05,15.47-.63,31.07.43,46.51.46,5.42.77,13.82-5.74,15.4-3.31.6-6.34-1.92-7.65-5.29-1.32-3.29-1.02-6.91-.41-10.33,3.09-14.09,4.91-28.46,5.62-42.86.09-2.41-.01-4.89-.67-7.2-1.02-3.68-3.5-6.75-5.93-9.65-9.42-11.12-19.15-22.1-30.12-31.71M262.81,237.45c.51.73,2.56,1.55,2.87.23.1-1.01-1.34-1.87-2.11-1.21-.28.19-.78.59-.78.88l.03.1Z"/>
    </g>
  </g>
</svg>