<?xml version="1.0" encoding="UTF-8"?>
<svg id="Capa_2" data-name="Capa 2" xmlns="http://www.w3.org/2000/svg" viewBox="0 0 516.65 640.5">
  <defs>
    <style>
      .cls-1 {
        fill: #141510;
      }

      .cls-1, .cls-2, .cls-3, .cls-4, .cls-5 {
        stroke-width: 0px;
      }

      .cls-2 {
        fill: #7a3c93;
      }

      .cls-3 {
        fill: #88c125;
      }

      .cls-4 {
        fill: #f2f1ec;
      }

      .cls-5 {
        fill: #f1efea;
      }
    </style>
  </defs>
  <g id="Capa_1-2" data-name="Capa 1">
    <path class="cls-1" d="M399.76,562.8c1.57-.57,7.73,3.39,9.12,3.77,5.11,1.39,10.23,3.15,15.52,3.19,19.64.16,32.28-18.09,28.44-35.96-2.29-10.63-9.78-16.68-19.95-19.69-1.14-.34-2.93-.18-3.16-1.47-.26-1.42,1.6-1.69,2.54-2.45,11.19-9.05,17.65-20.28,16.54-35.16-.61-8.2-5.42-14.74-13.1-17.33-2.97-1-6.17-.37-9.54-1.08,6.28-8.66,8.1-17.67,4.28-27.43-.78-2,.78-2.17,1.76-2.59,3.68-1.56,6.87-3.71,9.37-6.88,10.27-12.99,11.58-27.66,7.72-43.1-1.08-4.31-3.54-7.94-8.18-9.82-5.06-2.05-10.22-1.6-15.37-1.36-2.53.11-3.05-.61-2.83-2.93.25-2.64.48-5.28.52-7.92.13-8.5-.84-8.23,5.41-9.94,2.55-.69,5.09-1.43,7.59-2.27,6.59-2.19,13.13-4.5,18.64-8.98,9.6-7.81,9.01-24.9,4.03-34.91-.87-1.75-1.55-2.49.82-3.55,6.07-2.72,11.69-6.31,15.36-12.01,9.92-15.42,7.87-30.97-.27-46.3-2.41-4.55-6.45-7.11-11.76-8.01-7.21-1.23-14.13.52-21.12,1.39-7.02.88-13.97,2.24-20.97,3.27-.95.14-2.59.79-2.92-.75-.27-1.26,1.14-1.89,2.2-2.24,3.94-1.32,7.93-2.47,11.87-3.79,7.95-2.66,16.02-5.49,20.76-12.95,6.9-10.85,5.42-22.5,1.64-33.95-.8-2.43-.48-2.73,1.62-3.61,14.46-6.02,20.37-16.04,19.23-31.55-.42-5.7-2.82-10.81-4.03-16.26-.76.14-.53-.46-.56-.87-3.13-4.56-6.84-8.6-10.95-12.29-7.19.08-14.4-.21-21.47,1.55-1.62.4-3.21.28-4.44-1.25-1.78-2.21-4.58-3.08-6.73-4.83-11.46-9.29-10.27-9.48-18.25-12.21-6.8-3.15-13.35-1.28-19.78,1.19-1.53.59-2.63.68-4.12,0-5.43-2.47-11.24-3.33-17.1-2.54-20.9,2.82-41.68,6.31-61.82,12.8-1.12.36-1.86.4-2.95-.53-4.82-4.09-10.7-5.26-16.74-4.66-10,.99-19.61,3.93-28.42,8.64-3.62,1.93-5.74,1.89-9.26-.01-13.21-7.14-27.64-9.92-42.51-11.23-19.49-1.72-38.46.66-57.01,6.51-2.61.82-3.92.49-5.84-1.29-9.23-8.51-20.25-12.45-32.81-12.3-10.75.13-19.89,4.56-28.22,10.73-18.82,13.95-32.41,32.12-42.06,53.35-7.98,17.57-12.15,35.96-10.58,55.27,1.81,22.18,12.08,40.16,29.07,54.27,2.85,2.37,2.85,3.61.38,5.91-6.37,5.93-11.1,13.15-15.32,20.68-11.14,19.92-17.33,41.02-13.39,63.99,3.3,19.23,13.96,33.58,31.13,42.89,2.44,1.33,2.34,1.82.74,3.81-16.66,20.81-26.43,44.21-26.83,71.22-.26,17.96,5.7,33.21,18.86,45.47,5.86,5.45,12.59,9.69,20.45,12.5-4.08,1.56-7.82,2.85-11.45,4.42-7.97,3.44-14.75,8.18-18.09,16.73-1.16,2.98-1.3,11.43.03,14.24,1.3,2.76,6.99,10.05,9.49,12.15,9.17,7.7,14.37,7.68,17.92,9.01,5.57,2.08,17.46,1.87,22.65.42,102.84-28.71,156.69-46.38,304.21-29.11Z"/>
    <g id="Spray">
      <g id="Manchas_verdes" data-name="Manchas verdes">
        <path class="cls-3" d="M6.96,457.65c.04-4.81,3.51-8.78,7.66-8.75,4.13.03,7.69,4.01,7.55,8.45-.13,4.02-4.57,9.02-7.99,8.99-4.05-.04-7.25-3.89-7.21-8.68Z"/>
        <path class="cls-3" d="M477.1,490.81c-1.81-.09-3.32-.68-3.12-2.84.19-2.11,1.48-3.58,3.62-3.69,2.03-.1,2.88,1.47,2.77,3.26-.11,1.88-.85,3.49-3.27,3.26Z"/>
        <path class="cls-3" d="M474.9,517.23c-.23,1.62-.88,2.68-2.63,2.63-1.74-.05-2.85-.78-2.97-2.63-.12-1.8,1.03-2.54,2.54-2.48,1.55.06,2.95.66,3.05,2.48Z"/>
        <path class="cls-3" d="M2.19,453.43c1.7.21,2.66.98,2.4,2.51-.22,1.31-.4,3.05-2.14,3.13-1.68.08-2.24-1.35-2.42-2.84-.22-1.79.91-2.42,2.16-2.81Z"/>
        <path class="cls-3" d="M440.34,510.69c-1.84-.12-2.3-1.2-2.38-2.55-.08-1.35.58-2.18,1.95-2.16,1.27.01,2.61.25,2.7,1.88.09,1.66-1.24,2.25-2.26,2.84Z"/>
        <path class="cls-3" d="M10.74,428.86c-.23,1.1-.86,2.15-2.05,2.26-1.18.11-1.68-.92-1.68-2.02,0-1.3.72-2.18,2-2.29,1.28-.11,1.68.83,1.73,2.05Z"/>
        <path class="cls-3" d="M30.63,432.75c.13,1.18-.51,1.8-1.73,1.72-1.1-.07-2.01-.62-1.94-1.83.06-1.07.76-1.95,1.9-1.96,1.14,0,1.78.76,1.77,2.07Z"/>
        <path class="cls-3" d="M472.2,470.06c.05.95-.49,1.66-1.4,1.79-1.12.17-1.97-.58-2.06-1.63-.1-1.13.86-1.83,1.85-1.97,1.1-.15,1.27.95,1.62,1.8Z"/>
        <path class="cls-3" d="M18.45,416.7c-.04,1.17-.38,2.04-1.42,1.95-.89-.07-1.52-.82-1.6-1.78-.07-.97.45-1.81,1.36-1.93,1.34-.17,1.41,1.05,1.66,1.76Z"/>
      </g>
      <g id="Manchas_moradas" data-name="Manchas moradas">
        <path class="cls-2" d="M339.23,74.93c-2.15-.16-3.33-1.32-3.31-3.4.03-2.29,1.76-2.9,3.65-2.97,2.01-.07,3.02,1.19,3.03,3.07.01,2.16-1.4,3.07-3.37,3.3Z"/>
        <path class="cls-2" d="M513.83,100.18c2.29-.21,2.55,1.4,2.79,2.68.26,1.47-.71,2.42-2.13,2.6-1.76.22-2.6-1-2.74-2.48-.15-1.55.71-2.62,2.08-2.8Z"/>
        <path class="cls-2" d="M305.29,63.08c-.12,1.43-1.08,2.43-2.56,2.59-1.55.17-2.69-.59-2.71-2.34-.02-1.73,1.29-2.61,2.63-2.62,1.07,0,2.53.53,2.63,2.37Z"/>
      </g>
      <path id="linea_verde" data-name="linea verde" class="cls-3" d="M53.12,564.32c-2.94-3.14,3.12-10.44,7.29-12.54,19.11-9.61,39.87-13.68,60.37-18.55,19.33-4.59,38.85-8.29,58.52-11.34,16.08-2.49,32.2-4.6,48.34-6.42,13.66-1.54,27.4-2.69,41.17-3.43,15.59-.83,31.18-1.38,46.79-1.34,9.36.02,18.69.77,28.03,1.26,6.88.36,13.83.43,20.69,1.05,17.69,1.6,35.5,2.7,52.55,8.33,5.49,1.81,11.05,3.68,15.19,8.1,2.85,3.04,3.14,9.99.63,14.23-2.51,4.26-6.3,5.81-11.27,4.73-4.3-.94-8.65-1.64-12.92-2.7-2.75-.68-3.89.57-3.89,2.91,0,5.58-.72,11.16.04,16.74-.43,3.67.23,7.3.48,10.94.11,1.62.18,3.3-.11,4.89-.48,2.63-1.66,4.95-4.88,4.65-3.17-.29-4.06-2.68-4.03-5.41.06-5.16.22-10.32.46-15.47.04-.81-.09-1.45-.41-2.12,1.3-3.89,1.21-7.96.88-11.91-.62-7.49-.84-7.45-8.23-9.27-10.09-2.49-20.46-3.08-30.73-4.12-12.47-1.26-25.03-1.75-37.56-2.19-20.78-.73-41.52.67-62.25,1.96-10.74.67-21.38,2.13-32.04,3.38-10.99,1.29-21.91,3.27-32.84,5.11-16.11,2.72-32.03,6.32-47.93,10.04-5.3,1.24-10.17,3.91-15.76,4.24-3.82.22-7.38,1.87-8.68,5.76-1.97,5.95-1.71,12.09-.41,18.19.24,3.54.49,7.07.73,10.61.13,1.81-.15,3.55-.99,5.16-1.69,3.24-5.15,3.33-7.26.33-2.36-3.35-1.45-7.04-1.33-10.66.03-.87.2-1.74.31-2.61,1.72-2.28.79-4.9.88-7.36.13-3.29.07-6.61-.1-9.9-.09-1.72-1.06-3.35-2.72-3.77-1.38-.35-1.96,1.31-2.66,2.32-4.47,6.44-5.38,13.7-4.86,21.28-1.14,7.59-.15,15.18,0,22.76.13,6.6.69,13.19.92,19.79.07,2.01-.33,4.04-1.26,5.89-.78,1.56-1.77,2.73-3.77,2.62-2.08-.11-3.21-1.18-3.87-3.06-1.27-3.61-.65-7.25-.39-10.9.8-11.24,2.01-22.45,1.87-33.74,0-.45-.36-.9-.55-1.35-.04-4.82.03-9.65-.17-14.47-.16-3.83-1.43-4.43-4.79-2.79-4.45,2.16-11.4,9.92-22.22,5.17-8.62-6.72-7.38-6.59-15.3-15.03Z"/>
      <path id="x_morada" data-name="x morada" class="cls-2" d="M471.02,126.84c-3.13-4.56-6.84-8.6-10.95-12.29-6-6.65-12-13.3-18.02-19.93-.69-.76-1.55-2.19-2.66-.6-3.82,5.46-8.52,10.26-11.96,16-7.94,7.08-14.74,15.24-22.04,22.93-1.78,1.87-2.81,5.13-6.43,4.38-.96-.2-2.48,1.08-2.82-.7-.39-2.02,1.83-.97,2.56-1.76-1.24-1.6-2.93-1.52-4.47-.9-.96.38-1.85.46-2.35-.19-.49-.63-.7-1.86.03-2.46,2.1-1.72-.34-1.8-.79-1.82-3.25-.13-2.09-2.75-1.55-3.67,2.14-3.63,4.73-7,7.15-10.46,4.11-5.89,8.87-11.31,12.47-17.55,4.69-5.99,9.3-12.04,14.11-17.93,1.53-1.87.7-2.75-.62-4.03-14.56-14.21-29.09-28.43-43.57-42.72-2.43-2.4-4.64-5.04-6.82-7.68-2.04-2.47-1.53-3.71,1.58-4.37.33-.07.82-.36.88-.63.74-3.37,4-3.28,6.23-4.59.62-.36,1.11-.62,1.52-1.42,2.6-4.97,6.41-5.91,10.43-2.45,12.14,10.46,23.5,21.73,34.6,33.28,4.12,4.29,8.8,8.05,13.26,12.09,7.9-9.61,16.57-19.89,25.67-29.8,8.51-9.27,17.23-18.33,26.44-26.91,1.59-1.48,4.19-.03,4.31.18,3.02,5.44,10.03,7.15,12.23,13.51.74,2.15.96,3.66.05,5.5-2.21,4.49-5.54,8.18-8.81,11.89-13.29,15.06-27.54,29.21-41.69,43.45-1.76,1.78-1.58,2.52.03,4.1,17.2,16.94,34.13,34.16,50.28,52.12,2.41,2.69,4.32,5.71,4.11,9.51-.08,1.56,1.22,1.52,2.33,1.95-3.48,1.54-7.73-.33-9.71,3.78l-.02.02c-.59.15-1.71.35-1.7.44.31,2.95-1.01,2.45-3.22,2.16-1.83-.24-3.45,1.53-3.42,3.79.12,9.77-.64,19.56.56,29.32.25,2.01.17,4.06.13,6.09-.04,1.97-.99,3.41-2.96,3.92-2.1.54-3.82-.18-4.85-2.06-1.11-2.03-1.68-4.21-1.01-6.56,2.67-9.33,3.13-18.97,4-28.56.15-1.64.29-3.44-.84-4.77-6.73-7.89-13.2-16.03-21.11-22.84,0,0,.1.08.1.08M507.48,142.95c.42.27.67.53.95.58.56.1.98-.14.72-.77-.1-.25-.53-.51-.8-.5-.25,0-.48.36-.87.69Z"/>
    </g>
    <g id="Griff">
      <path id="G" class="cls-4" d="M122.89,209.97c-4.51.4-8.5,2.24-12.67,3.33-7.32,1.9-16.95-4.26-17.93-11.7-.48-3.69,1.66-5.58,4.6-6.94,7.18-3.32,14.84-5.21,22.35-7.54,9.2-2.86,18.49-5.46,27.62-8.51,7.11-2.38,9.58,1.99,10.4,7.46.42,2.79-.31,5.49-1.14,8.18-4.56,14.9-8.07,30.05-10.17,45.5-.66,4.89-.82,9.87-.8,14.81.02,3.89-1.85,6.13-5.32,6.61-6.32.88-9.73-.18-12.24-6.09-1.25-2.95-1.79-6.2-2.72-9.57-2.15,1.87-4.12,3.83-6.32,5.48-16.01,11.99-38.54,10.93-53.8-6.11-12.92-14.42-17.3-31.13-14.35-49.75,4.52-28.55,17.45-53,37.76-73.53,5.26-5.31,11.58-8.99,19.11-9.85,5.55-.63,10.59,1.4,15.23,4.35,11.7,7.42,17.71,18.49,20.29,31.75.17.86.45,1.71.61,2.57,1.16,6.32.23,8.19-5.36,11.43-4.69,2.72-9.3,5.56-13.98,8.28-3.3,1.92-4,1.43-5.02-2.21-1.88-6.75-2.69-13.77-5.21-20.36-.86-2.25-1.83-4.35-3.38-6.25-2.35-2.9-4.37-2.54-6.86-.14-7.58,7.31-12.63,16.31-17.13,25.63-5.33,11.03-9.39,22.57-9.86,34.92-.35,9.12.78,18.14,6.1,26.06,5.18,7.71,12.69,9.61,20.64,4.79,8.51-5.16,14.97-12.31,19.39-21.27.15-.3.08-.7.14-1.34Z"/>
      <path id="R" class="cls-4" d="M159.52,224.48c.71-18.51,1.48-37.91,2.19-57.32.25-6.86.35-13.72.51-20.57.04-1.64-.51-2.97-2.15-3.57-2.4-.88-4.37-2.44-6.43-3.87-3.9-2.73-3.96-6.84-.01-9.43,5.49-3.61,11.87-4.57,18.11-5.93,12.09-2.63,24.36-3.31,36.61-2.2,12.5,1.14,24.6,3.79,34.21,12.99,9.98,9.56,10.01,23.25,3.56,34.29-6.51,11.13-16.77,18.03-28.06,23.39-3.64,1.73-2.71,2.95-.75,4.85,9.03,8.74,18.77,16.62,28.92,24.01,2.65,1.93,5.23,3.95,7.84,5.91,1.81,1.36,2.07,2.85.92,4.91-3.77,6.75-8.6,12.47-15.15,16.68-2.16,1.39-4.07,1.53-6.15-.32-15.15-13.48-31.39-25.79-44.55-41.41-.77-.91-1.53-2.45-2.94-1.95-1.31.47-.61,2.02-.64,3.07-.3,9.78-.62,19.56-.72,29.34-.02,2.34-1.18,3.44-2.93,4.33-5.28,2.69-10.91,4.4-16.66,5.66-2.98.65-4.65-1.32-4.9-5.58-.32-5.45-.53-10.91-.83-17.28ZM195.33,145.26c-1.78,0-3.56-.12-5.33.04-1.09.1-2.05.44-2.1,2.08-.31,10.52-.74,21.03-1.19,31.55-.08,1.95.78,2.63,2.46,1.94,11.66-4.81,23.23-9.81,32.09-19.25,5.13-5.46,4.08-9.86-2.99-12.61-7.37-2.87-15.14-3.51-22.95-3.75Z"/>
      <g>
        <path class="cls-4" d="M285.49,205.48s-.09,0-.14,0c0-10.79,0-21.58,0-32.37,0-2.09-.04-4.13-2.94-4.33-5.85-.41-11.58.47-17.24,1.73-1.95.43-3.23,1.87-3.35,4.1-.49,8.98-1.14,17.96-1.49,26.95-.56,14.18-.77,28.37.68,42.53.46,4.46,1.6,5.76,6.02,4.8,5.74-1.24,11.07-3.51,16-6.85,1.99-1.35,2.51-2.77,2.5-4.94-.07-10.54-.03-21.08-.03-31.62Z"/>
        <path class="cls-4" d="M286.39,126.54c-.97-4.64-1.7-5.28-6.29-3.78-4.85,1.59-9.6,3.46-14.44,5.08-2.28.76-3.11,2.17-3.02,4.52.13,3.54.03,7.1.03,10.65-.03,0-.06,0-.09,0,0,3.68.04,7.35-.01,11.03-.04,2.74,1.03,4.64,3.83,5.03,6.89.97,13-1.32,18.71-4.87.62-.38,1.09-1.53,1.08-2.31-.16-8.45,1.97-16.86.2-25.34Z"/>
      </g>
      <path id="F" class="cls-4" d="M298.44,232.31c.44-20.81,1.28-41.6,2.96-62.35.38-4.68.56-9.37.86-14.05.11-1.67-.19-2.83-2.18-3.29-4.02-.94-4.58-4.02-3.82-7.42,1.07-4.73,4.06-8.88,3.91-14.07-.05-1.82,2.41-2.28,4.09-2.8,8.63-2.67,17.49-4.36,26.34-6.05,12.21-2.33,24.44-4.54,36.66-6.8,5.36-.99,7.36.14,9.04,5.36,3.82,11.86-.52,19.02-12.63,22.76-10.06,3.11-20.42,4.98-30.77,6.82-3.2.57-4.95,1.66-5.23,5.01-.48,5.66-1.02,11.32-1.8,16.95-.41,2.98,1.31,2.82,3.08,2.47,7.76-1.53,15.56-2.91,23.2-4.89,3.73-.97,5.3.79,6.49,3.45,1.75,3.92,2.43,8.17,3.08,12.38.39,2.5-1.18,3.9-3.15,5.09-7.17,4.35-15.31,6.02-23.17,8.42-10.64,3.25-10.57,3.14-10.33,14.39.18,8.13-.03,16.27.14,24.41.05,2.27-.65,4.04-2.31,5.25-5.87,4.27-12.28,7.26-19.66,7.94-3.88.36-4.84-1.6-4.82-4.86.03-4.7,0-9.41,0-14.11Z"/>
      <path id="F-2" data-name="F" class="cls-4" d="M367.88,236.64c.67-12,1.32-23.99,2.88-35.93,1.4-10.76,2.13-21.61,3.95-32.32.38-2.21-.92-2.84-2.63-3.38-5.8-1.83-5.74-2.8-4.93-8.6,1.28-9.09,7.98-11.52,15.05-13.49,13.75-3.82,27.8-6.3,41.9-8.47,5.97-.92,11.95-1.77,17.88-2.85,3.95-.72,6.8.17,8.79,3.96,1.82,3.47,3.88,6.83,3.74,10.86-.21,6.02-4.18,10.41-10.92,11.62-12.5,2.24-25.05,4.24-37.61,6.16-3.41.52-5.76,1.41-6.15,5.43-.43,4.49-1.41,8.94-2.19,13.4-.54,3.08.95,3.84,3.65,3.29,7.87-1.61,15.71-3.4,23.61-4.79,8.82-1.54,8.67-.82,10.86,6.23.78,2.5,1.6,5.01,1.58,7.72-.03,5.79-.48,6.59-6.03,8.41-9.67,3.16-19.72,4.71-29.62,6.91-1.11.25-2.22.69-3.32.67-2.42-.06-2.96,1.21-3.02,3.32-.19,7.23-.59,14.46-.74,21.7-.13,6.15-1.1,7.74-6.73,9.83-4.11,1.52-8.13,3.33-12.63,3.55-4.77.24-7.02-1.55-7.36-6.35-.16-2.28-.03-4.57-.03-6.86Z"/>
    </g>
    <g id="Graff">
      <path id="F-3" data-name="F" class="cls-4" d="M377.81,361.9c.71-12.9,1.46-25.78,2.89-38.63,1.47-13.18,2.86-26.37,4.68-39.5.25-1.78-.13-3-1.99-3.95-2.58-1.32-3.24-3.71-2.3-6.49.92-2.72,1.7-5.47,2.14-8.34.4-2.59,2.28-3.99,4.86-4.68,10.32-2.77,20.84-4.57,31.28-6.77,8.6-1.81,17.26-3.31,25.91-4.86,3.1-.55,6.24-.95,9.37-1.19,1.29-.1,2.68.02,3.39,1.73,2.57,6.15,4.18,12.24,1.84,18.97-1.02,2.93-3.02,3.85-5.45,4.43-9.87,2.34-19.77,4.62-29.67,6.83-4.15.93-8.37,1.57-12.53,2.47-2.4.52-3.64,1.77-4.04,4.61-.59,4.17-.4,8.34-.86,12.49-.28,2.52.54,3.78,3.51,3.08,7.07-1.66,14.26-2.82,21.28-4.67,3.63-.96,5.59.35,7.11,3.19,1.72,3.22,2.59,6.78,3.41,10.29,1.07,4.56-.73,7.48-5.77,8.98-5.89,1.75-11.89,3.12-17.85,4.59-3.41.84-6.84,1.56-10.27,2.33-1.72.38-2.56,1.43-2.69,3.19-.75,9.95-1.7,19.9-2.23,29.86-.35,6.5-.68,7.43-6.73,9.74-4.09,1.57-8.19,3.1-12.52,3.92-4.67.88-6.64-.74-6.76-5.52-.05-2.03,0-4.07,0-6.1Z"/>
      <path id="F-4" data-name="F" class="cls-4" d="M309.7,345.37c.57-17.77,1.06-35.55,1.79-53.32.12-2.97-.78-4.63-3.42-5.64-3.36-1.29-5.65-3.62-6.83-7.08-1.47-4.32-.46-7.1,3.7-8.91,7.37-3.19,15.16-5.05,22.92-6.99,12.17-3.05,24.39-5.76,36.76-7.96,10.32-1.84,12.19,1.25,11.44,11.25-.25,3.29-1.63,6.57-2.91,9.68-1.3,3.15-4.62,3.85-7.47,4.5-8.67,1.99-17.39,3.79-26.14,5.35-3.27.58-4.72,1.99-5.02,5.28-.5,5.45.28,10.92-.66,16.36-.38,2.2,1.4,2.38,3.06,1.93,7.74-2.11,15.53-3.95,23.36-5.7,3.26-.73,5.46.13,7,2.83,1.44,2.51,2.46,5.27,2.87,8.12.74,5.04-.63,7.37-5.51,9.4-8.91,3.7-18.19,6.3-27.4,9.12-2.27.7-3.05,1.7-3.19,4.12-.49,8-.57,16-.42,24,.06,3-1.02,5.14-3.4,6.74-4.19,2.82-8.68,4.97-13.6,6.19-2.79.69-4.64-.05-5.35-3.11-.98-4.22-1.19-8.52-1.34-12.8-.16-4.44-.03-8.9-.03-13.34h-.19Z"/>
      <path id="A" class="cls-4" d="M287.86,381.95c-2.39.25-3.41-1.02-4.05-3.31-3-10.61-5.07-21.43-7.3-32.2-.55-2.67-1.73-2.36-3.26-2.04-7.11,1.5-14.17,3.24-21.3,4.65-2.98.59-3.19,2.92-3.79,5-1.94,6.64-2.14,6.69-7.35,2.48-3.93-3.17-8.02-6.16-12.06-9.2-1.56-1.17-2.14-2.24-1.35-4.43,8.66-24.02,15.56-48.59,22.15-73.24.63-2.36,1.55-4.14,3.94-5.05,6.77-2.58,13.37-5.6,20.4-7.48,5.82-1.56,7.17-.84,8.54,5.24,3.36,14.88,6.61,29.79,9.95,44.67,1.2,5.36,2.62,10.67,3.78,16.04.46,2.12,2.15,2.66,3.64,3.51,3.93,2.25,4.27,3.37,1.34,6.9-1.62,1.94-1.94,3.56-1.31,6.13,2.23,9.12,4.55,18.25,5.7,27.6.09.75.37,1.44-.04,2.19-2.33,4.34-11.4,12.88-17.62,12.54ZM266.14,290.51c-4.29,12.04-7.23,24.05-10.39,36.38,5.64-.43,10.81-1.88,16.05-2.91,1.2-.24,1.53-.76,1.27-2.1-2.01-10.37-3.37-20.88-6.93-31.37Z"/>
      <path id="R-2" data-name="R" class="cls-4" d="M178.93,258.62c14.75-.12,26.69,1.36,37.84,7.32,18.67,9.98,18.19,29.27,5.59,42.72-6.23,6.65-13.62,11.65-21.65,15.74-2.05,1.04-2.56,1.5-.87,3.57,5.26,6.44,11.58,11.73,17.81,17.13,6.32,5.48,12.62,10.98,19.04,16.35,2.33,1.95,1.97,3.67.35,5.75-3.06,3.92-6.52,7.42-10.46,10.46-2.73,2.11-5.46,2.51-8.3.3-14.71-11.48-29.01-23.41-41.6-37.26-1.12-1.23-1.95-3.68-3.86-2.96-1.6.6-.99,2.94-.98,4.54,0,9.14-.82,18.23-1.56,27.33-.1,1.17-.3,2.31-1.39,2.92-5.06,2.83-10.18,5.55-16.04,6.33-2.64.35-4.32-.55-4.88-3.42-.26-1.37-.57-2.7-.61-4.1-.49-17.42,1.35-34.75,2.2-52.11.53-10.89,1.2-21.78,1.92-32.67.12-1.74-.67-2.46-1.99-3.13-2.45-1.24-4.94-2.45-7.27-3.89-3.96-2.43-4.51-6.41-1.49-9.92,4.37-5.08,10.53-6.77,16.6-8.41,7.84-2.13,15.91-2.71,21.62-2.59ZM173.19,313.13c2.36-.93,4.26-1.55,6.05-2.41,8.6-4.11,17.39-7.95,24.07-15.11,4.61-4.94,3.86-9.11-2.26-11.79-7.3-3.2-15.06-3.83-22.93-3.56-1.99.07-3.07,1.16-3.19,3.07-.6,9.73-1.14,19.47-1.73,29.8Z"/>
      <path id="G-2" data-name="G" class="cls-4" d="M140.36,312.46c-1.4-.24-3.08.17-4.51.62-10.76,3.48-21.52,7.01-32.27,10.53-5.02,1.72-11.47,2.43-14.26,7.57-1.45,3.01.66,5.55,2.04,8.1,3.01,5.16,4.49,8.23,11.08,6.05,4.54-1.41,7.65-2.38,12.1-3.18.95-.24,1.66.15,1.25,1.18-2.34,5.48-6.63,9.69-10.65,13.98-4.93,4.54-13.46,10.13-20.02,7.34-24.55-15.62-3.22-58.91,12.73-74.22,3.75-3.58,6.12-4.14,7.85,1.35,1.51,4.55,2.4,9.13,3.31,13.89.3,1.78,1.11,4.09,3.35,3.19,4.96-2.22,9.61-5.12,14.43-7.61,1.79-.85,3.07-2.44,3.08-4.48.27-5.55.29-11.09-1.1-16.58-5.27-19.09-24.93-22.2-39.45-11.25-12.73,9.51-22.03,23.14-29.42,37.04-7.81,15.35-13.81,31.91-9.18,49.29,2.1,8.25,6.86,16.58,13.37,21.93,14.82,12.73,36.74,10.84,52.11-.11,4.81-2.88,8.62-6.9,12.17-11.17,5.54-6.15,9.57-13.58,12.36-21.34,2.44-6.89,4.05-14.05,5.51-21.24.86-4.23-1.58-9.53-5.74-10.86l-.16-.03Z"/>
    </g>
    <g id="Groe">
      <path id="G-3" data-name="G" class="cls-4" d="M156.59,445.87c-2.7-3.73-4.22-4.47-8.72-3-14.13,4.16-28.25,8.3-42.33,12.54-12.72,4.22-10.71,10.35-1.67,18.03,4.62,3.5,10.62.56,15.57-.93,2.68-.75,5.57-1.19,3.94,1.79-2.58,4.54-5.83,8.54-9.58,11.77-4.55,3.83-10.92,7.68-16.99,7.53-7.15-.07-11.76-6.88-13.65-13.21-6.34-22.92,11.13-54.91,28.65-69.24,6.81-5.02,8.01,13.26,8.97,17.09.96,5.24,2.27,7.15,7.36,4.11,3.72-2.08,7.29-4.17,10.98-6.23,1.37-.79,2.81-1.68,3.62-3.06.84-1.41.91-3.18.91-4.82-.02-5.63-.76-11.2-2.54-16.56-4.18-12.91-17.43-19.36-30.33-15-21.1,7.06-38.14,32.18-46.96,51.57-6.62,14.76-11.11,30.7-6.6,46.64,3.78,14.57,13.83,25.22,28.15,30.09,8.85,2.75,18.59.95,26.85-2.98,3.66-1.92,6.98-4.46,10.35-6.84,2.85-1.64,2.79,2.14,2.71,3.97-.12,3.09.59,6.06,1,9.08.3,2.24.92,4.72,2.97,5.98,3.46,2,7.64.92,11.17-.59,3.4-1.3,4.85-4.49,4.73-8,.93-20.51,6.28-40.44,11.84-60.12.97-2.93,1.74-7.06-.31-9.5l-.1-.13Z"/>
      <path id="R-3" data-name="R" class="cls-4" d="M193.09,387.92c13.99-.11,25.31,1.29,35.89,6.94,17.71,9.46,17.26,27.74,5.3,40.5-5.91,6.3-12.91,11.04-20.54,14.92-1.94.99-2.42,1.42-.82,3.38,4.99,6.1,10.98,11.12,16.89,16.24,5.99,5.19,11.97,10.41,18.06,15.5,2.21,1.85,1.87,3.48.33,5.45-2.91,3.71-6.18,7.03-9.92,9.92-2.59,2-5.18,2.38-7.88.28-13.95-10.88-27.51-22.19-39.46-35.32-1.06-1.16-1.85-3.49-3.66-2.81-1.52.57-.93,2.79-.93,4.31,0,8.66-.78,17.28-1.48,25.9-.09,1.11-.28,2.19-1.32,2.77-4.8,2.68-9.65,5.26-15.21,6-2.5.33-4.1-.52-4.62-3.24-.25-1.3-.54-2.56-.58-3.88-.46-16.51,1.28-32.94,2.08-49.4.5-10.33,1.14-20.65,1.82-30.96.11-1.65-.64-2.33-1.89-2.96-2.33-1.18-4.68-2.32-6.9-3.68-3.76-2.3-4.27-6.07-1.41-9.4,4.14-4.82,9.99-6.42,15.74-7.97,7.44-2.02,15.09-2.57,20.5-2.46ZM187.65,439.58c2.23-.88,4.04-1.47,5.73-2.28,8.16-3.9,16.49-7.53,22.83-14.32,4.37-4.68,3.66-8.63-2.15-11.18-6.92-3.03-14.28-3.63-21.74-3.37-1.88.07-2.91,1.1-3.02,2.91-.56,9.23-1.08,18.45-1.65,28.25Z"/>
      <path id="O" class="cls-5" d="M336.66,442.79c-.16,20.94-9.91,39.35-30.48,51.49-26.94,15.89-57.66-2.44-61.24-29.85-2.68-20.55,3.95-38.5,15.01-55.19,5.42-8.19,11.94-15.51,21.79-18.59,6.27-1.96,12.55-2.73,18.49,1.44,2.06,1.45,4.6-.12,6.96.43,8.83,2.07,15.35,7.27,20.4,14.57,6.86,9.91,9.08,21.11,9.09,35.69ZM311.86,437.78c-.15-2.27-.17-4.43-.47-6.56-.96-6.96-3.05-13.54-7.88-18.82-4.11-4.49-9.05-5.91-14.28-.59-14.95,15.17-20.83,33.41-18.94,54.34.72,7.97,6.87,12.91,14.14,11.63,3.48-.61,6.73-2.14,9.55-4.29,11.82-9,17.31-21.18,17.88-35.72Z"/>
      <path id="E" class="cls-4" d="M431.19,387.33c.01-6.58-1.89-8.08-8.24-6.64-2.08.66-54.87,3.69-74.97,10.07-.8.15-1.44.65-1.64,1.48-2.58,2.84-2.33,6.73-3.73,10.01,0,0,0,0,0,0-7.08,6.82,4.57,6.49,5.13,11.82-3.26,23.27-5.14,47.32-7.99,70.38-3.71,8.42,6.55,14.16,12.7,17.32,19.96.85,41.26-7.67,61.87-8.75,10.01,1.73,18.49-15.94,10.13-22.08-18.72-4.24-38.96,3.34-58.05,4.46.99-6.32-.58-18.55,5.97-21.27,13.41-3.66,51.76-.14,38.34-22.9-5.48-8.98-26,.39-35.47.12-9.36,1.42-1.4-14.05-1.01-19.02,7.34-2.07,39.54-6.79,45.52-6.31,9.96,1.22,11.94-10.93,11.41-18.68Z"/>
    </g>
  </g>
</svg>